<?xml version="1.0" encoding="UTF-8"?>
<!DOCTYPE svg PUBLIC "-//W3C//DTD SVG 1.1//EN" "http://www.w3.org/Graphics/SVG/1.1/DTD/svg11.dtd">
<!-- Creator: CorelDRAW X7 -->
<svg xmlns="http://www.w3.org/2000/svg" xml:space="preserve" width="200mm" height="200mm" version="1.1" style="shape-rendering:geometricPrecision; text-rendering:geometricPrecision; image-rendering:optimizeQuality; fill-rule:evenodd; clip-rule:evenodd"
viewBox="0 0 20000 20000"
 xmlns:xlink="http://www.w3.org/1999/xlink">
 <defs>
  <style type="text/css">
   <![CDATA[
    .fil0 {fill:black}
   ]]>
  </style>
 </defs>
 <g id="Capa_x0020_1">
  <metadata id="CorelCorpID_0Corel-Layer"/>
  <g id="_3048582427488">
   <path class="fil0" d="M10641 13913l0 -1541c0,-209 170,-378 379,-378 746,0 1151,-765 1207,-2275l-1207 0c-209,0 -379,-169 -379,-378l0 -3254c0,-209 170,-379 379,-379l3220 0c209,0 378,170 378,379l0 3254c0,723 -73,1388 -216,1974 -148,601 -374,1127 -672,1562 -308,448 -692,799 -1142,1044 -454,246 -982,371 -1568,371 -209,0 -379,-170 -379,-379zm-4881 -1919c-208,0 -378,169 -378,378l0 1541c0,209 170,379 378,379 587,0 1115,-125 1568,-371 451,-245 835,-596 1142,-1044 299,-435 525,-961 672,-1562 144,-587 217,-1251 217,-1974l0 -3254c0,-209 -170,-379 -379,-379l-3219 0c-209,0 -379,170 -379,379l0 3254c0,209 170,378 379,378l1190 0c-55,1510 -455,2275 -1191,2275z"/>
  </g>
  <g id="_3048582429024">
  </g>
  <g id="_3048582428000">
  </g>
  <g id="_3048582428288">
  </g>
  <g id="_3048582425792">
  </g>
  <g id="_3048582425408">
  </g>
  <g id="_3048582426304">
  </g>
  <g id="_3048582426144">
  </g>
  <g id="_3048582424256">
  </g>
  <g id="_3048582423712">
  </g>
  <g id="_3048582424000">
  </g>
  <g id="_3048582423936">
  </g>
  <g id="_3048582437344">
  </g>
  <g id="_3048582438976">
  </g>
  <g id="_3048582437536">
  </g>
  <g id="_3048582437440">
  </g>
 </g>
</svg>
