<?xml version="1.0" encoding="UTF-8"?>
<!DOCTYPE svg PUBLIC "-//W3C//DTD SVG 1.1//EN" "http://www.w3.org/Graphics/SVG/1.1/DTD/svg11.dtd">
<!-- Creator: CorelDRAW X7 -->
<svg xmlns="http://www.w3.org/2000/svg" xml:space="preserve" width="99.9912mm" height="99.9912mm" version="1.1" style="shape-rendering:geometricPrecision; text-rendering:geometricPrecision; image-rendering:optimizeQuality; fill-rule:evenodd; clip-rule:evenodd"
viewBox="0 0 9999 9999"
 xmlns:xlink="http://www.w3.org/1999/xlink">
 <defs>
  <style type="text/css">
   <![CDATA[
    .fil0 {fill:#9757A1}
   ]]>
  </style>
 </defs>
 <g id="Capa_x0020_1">
  <metadata id="CorelCorpID_0Corel-Layer"/>
  <path class="fil0" d="M4977 3821c-1002,36 -2453,-590 -3192,-1239l-571 -541c-89,-87 -91,-155 -206,-203 -283,698 -415,1340 122,2086 60,83 143,174 211,239 61,58 190,160 232,217 -378,-23 -534,-115 -821,-229 -27,484 197,956 425,1234 427,524 789,531 1032,664 -187,120 -552,42 -783,38 59,324 412,737 610,900 286,234 651,392 1135,430 -39,165 -882,540 -1140,625 -618,202 -950,169 -1621,174 148,183 950,505 1252,602 2445,782 5094,-193 6380,-2437 512,-892 746,-1760 749,-2978l494 -462c132,-138 355,-361 441,-549 -298,61 -672,276 -1029,264 280,-207 786,-697 773,-1035 -160,145 -776,356 -1057,427 -228,58 -152,1 -307,-125 -847,-686 -2126,-579 -2792,328 -356,485 -414,878 -337,1570z"/>
 </g>
</svg>
