<?xml version="1.0" encoding="UTF-8"?>
<!DOCTYPE svg PUBLIC "-//W3C//DTD SVG 1.1//EN" "http://www.w3.org/Graphics/SVG/1.1/DTD/svg11.dtd">
<!-- Creator: CorelDRAW X7 -->
<svg xmlns="http://www.w3.org/2000/svg" xml:space="preserve" width="99.9912mm" height="99.9912mm" version="1.1" style="shape-rendering:geometricPrecision; text-rendering:geometricPrecision; image-rendering:optimizeQuality; fill-rule:evenodd; clip-rule:evenodd"
viewBox="0 0 9999 9999"
 xmlns:xlink="http://www.w3.org/1999/xlink">
 <defs>
  <style type="text/css">
   <![CDATA[
    .fil0 {fill:#9757A1}
   ]]>
  </style>
 </defs>
 <g id="Capa_x0020_1">
  <metadata id="CorelCorpID_0Corel-Layer"/>
  <path class="fil0" d="M3011 8415c123,-144 230,-273 326,-443 -200,-131 -1379,-573 -1686,-1128 568,241 496,362 1434,616 1070,289 2620,276 3691,5 265,-67 516,-154 747,-252 250,-106 469,-274 700,-357 -594,741 -1530,1001 -1684,1116 80,162 226,287 297,448 954,-6 1826,-412 2384,-868 482,-393 452,-293 357,-1112 -154,-1329 -490,-2630 -1109,-3765 -295,-539 -1701,-998 -2260,-1013l-85 199c668,199 1471,462 1922,999 -205,-72 -442,-209 -659,-303 -1562,-683 -3228,-722 -4800,-42 -239,104 -467,248 -705,321 221,-362 1352,-881 1868,-962 -90,-313 -232,-215 -553,-145 -218,49 -438,118 -639,198 -296,117 -881,409 -1044,593 -585,657 -1276,3437 -1266,4495 5,501 1616,1435 2764,1400zm3119 -3732c-1006,243 -701,2094 299,1835 416,-109 631,-645 563,-1094 -61,-402 -391,-854 -862,-741zm-2610 -7c-430,81 -696,556 -640,1061 136,1215 1632,972 1484,-279 -50,-423 -377,-870 -844,-782z"/>
 </g>
</svg>
