<?xml version="1.0" encoding="UTF-8"?>
<!DOCTYPE svg PUBLIC "-//W3C//DTD SVG 1.1//EN" "http://www.w3.org/Graphics/SVG/1.1/DTD/svg11.dtd">
<!-- Creator: CorelDRAW X7 -->
<svg xmlns="http://www.w3.org/2000/svg" xml:space="preserve" width="99.9912mm" height="99.9912mm" version="1.1" style="shape-rendering:geometricPrecision; text-rendering:geometricPrecision; image-rendering:optimizeQuality; fill-rule:evenodd; clip-rule:evenodd"
viewBox="0 0 9999 9999"
 xmlns:xlink="http://www.w3.org/1999/xlink">
 <defs>
  <style type="text/css">
   <![CDATA[
    .fil0 {fill:#9757A1}
   ]]>
  </style>
 </defs>
 <g id="Capa_x0020_1">
  <metadata id="CorelCorpID_0Corel-Layer"/>
  <g id="_2072824502032">
   <path class="fil0" d="M904 8335l8322 0c147,0 312,-254 373,-385 50,-108 70,-200 78,-301l0 -428 0 -4941c-104,81 -191,166 -288,252 -395,353 -1068,932 -1429,1276l-1583 1412c-56,49 -93,88 -151,139l-859 763c-359,347 -290,279 -451,137l-286 -255c-50,-44 -95,-81 -144,-126 -97,-90 -190,-169 -286,-255l-571 -511c-56,-48 -86,-80 -142,-129l-3034 -2703 0 5352c9,213 100,411 220,551 52,60 153,152 231,152z"/>
   <path class="fil0" d="M687 1502c7,89 49,115 95,163 179,190 1002,907 1241,1116l1657 1472c350,306 1077,982 1385,1223 352,-275 1268,-1115 1644,-1445 488,-427 1194,-1034 1650,-1460l1083 -1006c-24,-108 -101,-126 -216,-126l-8340 0c-98,0 -141,18 -199,63z"/>
  </g>
 </g>
</svg>
