<?xml version="1.0" encoding="UTF-8"?>
<!DOCTYPE svg PUBLIC "-//W3C//DTD SVG 1.1//EN" "http://www.w3.org/Graphics/SVG/1.1/DTD/svg11.dtd">
<!-- Creator: CorelDRAW X7 -->
<svg xmlns="http://www.w3.org/2000/svg" xml:space="preserve" width="99.9912mm" height="99.9912mm" version="1.1" style="shape-rendering:geometricPrecision; text-rendering:geometricPrecision; image-rendering:optimizeQuality; fill-rule:evenodd; clip-rule:evenodd"
viewBox="0 0 9999 9999"
 xmlns:xlink="http://www.w3.org/1999/xlink">
 <defs>
  <style type="text/css">
   <![CDATA[
    .fil0 {fill:#9757A1}
   ]]>
  </style>
 </defs>
 <g id="Capa_x0020_1">
  <metadata id="CorelCorpID_0Corel-Layer"/>
  <path class="fil0" d="M5322 4095c-9,-235 -2,-471 -81,-647 -297,-136 -1454,-118 -1790,-20 -157,429 -66,4333 -73,5385 -1,102 -9,268 -1,363 43,459 607,351 1505,330 264,-6 238,16 354,-136 164,-182 83,-2273 82,-2694 -1,-887 161,-1713 1070,-1727 1279,-20 1009,1831 1009,3238 0,520 -91,1098 147,1254 185,119 1271,103 1555,56 443,-73 286,-875 286,-1310 0,-1851 346,-4441 -1679,-4855 -476,-98 -1027,-70 -1461,74 -224,75 -361,144 -539,293 -77,64 -336,315 -384,396z"/>
  <path class="fil0" d="M1021 9502c984,0 1495,148 1495,-429l0 -5263c0,-588 -498,-440 -1495,-440 -632,0 -444,692 -444,1273l-3 4431c10,327 104,428 447,428z"/>
  <path class="fil0" d="M1260 391c-602,144 -1102,756 -930,1507 131,574 746,1091 1482,928 1618,-358 1058,-2819 -552,-2435z"/>
 </g>
</svg>
